<?xml version="1.0" encoding="utf-8"?>
<!-- Generator: Adobe Illustrator 26.5.0, SVG Export Plug-In . SVG Version: 6.00 Build 0)  -->
<svg version="1.1" id="Layer_1" xmlns="http://www.w3.org/2000/svg" xmlns:xlink="http://www.w3.org/1999/xlink" x="0px" y="0px"
	 viewBox="0 0 720 720" style="enable-background:new 0 0 720 720;" xml:space="preserve">
<style type="text/css">
	.st0{fill:#F6DE1E;}
</style>
<g>
	<path class="st0" d="M360,719.9c-117.4,0-234.8,0-352.2,0.1c-6.5,0-7.8-1.7-7.8-7.9C0.1,477.2,0.1,242.5,0,7.7C0,1.9,1.4,0,7.4,0
		c235,0.1,469.9,0.1,705,0c6.1,0,7.4,1.7,7.4,7.6c-0.1,234.8-0.1,469.5,0,704.4c0,6.1-1.2,7.9-7.7,7.9
		C594.8,719.9,477.4,719.9,360,719.9z"/>
	<path d="M551.5,663.6c-36-0.2-69-9.2-96.4-33.9c-9.9-8.9-17.9-19.4-24.6-30.9c-2-3.5-1.7-5.1,1.9-7.1c15.8-8.9,31.5-18.1,47.1-27.3
		c3.1-1.9,4.6-1.6,6.7,1.6c10.5,16.4,23.9,29.6,43.4,34.6c16,4.1,32,4.3,47.1-3c23.2-11,25.9-38.2,5.5-53.8
		c-11.7-8.8-25.2-13.9-38.5-19.6c-21.3-9.3-43-17.9-61.3-33c-31.8-26.4-40.3-60.9-30.5-99.4c9.6-37.7,37.2-57.2,74.4-63.4
		c25.1-4.2,49.7-2.5,73.2,8.6c18.6,8.7,31.9,23.2,42.4,40.4c1.5,2.4,1.6,3.8-1,5.5c-15.6,9.9-31.4,20-46.9,30
		c-2.9,1.9-3.8,0.7-5.2-1.5c-2.9-4.8-6.1-9.4-10-13.3c-12.3-11.9-26.8-15.1-42.8-10.5c-21.2,6.2-27.8,32.4-12.5,48.4
		c6.7,6.9,15.3,11.2,23.9,15.1c21.7,9.9,44.3,18.2,64.8,30.6c21.2,12.8,39.1,28.8,46.5,53.3c7.6,25.1,7.7,50.2-3.5,74.3
		c-13.4,28.7-38,43-67.6,50.1C575.9,662.4,563.7,663.7,551.5,663.6z"/>
	<path d="M391.6,455.1c0,39.1,0.7,78.2-0.2,117.1c-0.7,27.3-9.7,51.9-31.5,70.1c-15.3,12.7-33.5,18.4-53,20.2
		c-28.2,2.7-55.2-0.6-79.6-16.4c-16-10.3-27.8-24.4-36.3-41.3c-1.2-2.5-1.2-3.7,1.4-5.3c16.4-9.7,32.5-19.5,48.6-29.5
		c3.2-2,4.3-1,6,1.9c4.1,7.2,8.3,14.3,14.3,20.1c11.7,11.4,33,14.5,47.1,6.7c10-5.6,13.4-15.3,14.9-25.8c0.6-4.7,0.7-9.4,0.7-14.3
		c0-73.8,0.1-147.5-0.1-221.3c0-5.5,1.4-6.8,6.8-6.7c18.6,0.4,37.2,0.2,55.8,0c4.5,0,5.5,1.2,5.5,5.5c-0.1,39.7-0.1,79.4-0.1,119
		C391.8,455.1,391.6,455.1,391.6,455.1z"/>
</g>
</svg>
