<?xml version="1.0" encoding="utf-8"?>
<!-- Generator: Adobe Illustrator 26.5.0, SVG Export Plug-In . SVG Version: 6.00 Build 0)  -->
<svg version="1.1" id="Layer_1" xmlns="http://www.w3.org/2000/svg" xmlns:xlink="http://www.w3.org/1999/xlink" x="0px" y="0px"
	 viewBox="0 0 633.2 720" style="enable-background:new 0 0 633.2 720;" xml:space="preserve">
<style type="text/css">
	.st0{fill:#E34F26;}
	.st1{fill:#EF652A;}
	.st2{fill:#EBEBEB;}
	.st3{fill:#FFFFFF;}
</style>
<g>
	<path class="st0" d="M56.7,646.9L-1,0h634.2l-57.7,646.9L315.4,720"/>
	<path class="st1" d="M316.8,663.8l209.5-57.7L575.6,52H316.8"/>
	<path class="st2" d="M316.8,292.5H211.3l-7-81.6h112.5v-78.8h-1.4H117.1l1.4,21.1l19.7,219.4h178.6V292.5z M316.8,499.2h-1.4
		l-88.6-23.9l-5.6-63.3H179h-36.6l9.8,125.2l163.1,45h1.4V499.2z"/>
	<path class="st3" d="M315.4,292.5v80.2h98.4L404,475.3l-88.6,23.9v83l163.1-45l1.4-14.1l18.3-209.5l2.8-21.1h-22.5H315.4z
		 M315.4,132.2v49.2v29.5l0,0h192.7l0,0l0,0l1.4-16.9l4.2-40.8l1.4-21.1H315.4z"/>
</g>
</svg>
