<?xml version="1.0" encoding="utf-8"?>
<!-- Generator: Adobe Illustrator 26.5.0, SVG Export Plug-In . SVG Version: 6.00 Build 0)  -->
<svg version="1.1"
	 id="svg3430" xmlns:svg="http://www.w3.org/2000/svg" xmlns:cc="http://creativecommons.org/ns#" xmlns:rdf="http://www.w3.org/1999/02/22-rdf-syntax-ns#" xmlns:dc="http://purl.org/dc/elements/1.1/"
	 xmlns="http://www.w3.org/2000/svg" xmlns:xlink="http://www.w3.org/1999/xlink" x="0px" y="0px" viewBox="0 0 1362.5 720"
	 style="enable-background:new 0 0 1362.5 720;" xml:space="preserve">
<style type="text/css">
	.st0{fill:none;}
	.st1{fill:url(#path3462_00000078740059032377332930000013547281501396718513_);}
	.st2{fill:#777BB3;}
	.st3{fill:#FFFFFF;}
</style>
<g id="g3440">
	<path class="st0" d="M0,360c0,197.9,305,358.4,681.3,358.4l0,0c376.2,0,681.3-160.5,681.3-358.4l0,0c0-197.9-305-358.4-681.3-358.4
		l0,0C305,1.6,0,162.1,0,360"/>
	<g id="g3442">
		<g id="g3448">
			<g id="g3450">
				
					<radialGradient id="path3462_00000083800664070057664980000014526153384748646062_" cx="590.7866" cy="486.599" r="1.9713" gradientTransform="matrix(453.8224 0 0 -453.8224 -267703.125 220957.1094)" gradientUnits="userSpaceOnUse">
					<stop  offset="0" style="stop-color:#AEB2D5"/>
					<stop  offset="0.3" style="stop-color:#AEB2D5"/>
					<stop  offset="0.75" style="stop-color:#484C89"/>
					<stop  offset="1" style="stop-color:#484C89"/>
				</radialGradient>
				<path id="path3462" style="fill:url(#path3462_00000083800664070057664980000014526153384748646062_);" d="M0,360
					c0,197.9,305,358.4,681.3,358.4l0,0c376.2,0,681.3-160.5,681.3-358.4l0,0c0-197.9-305-358.4-681.3-358.4l0,0
					C305,1.6,0,162.1,0,360"/>
			</g>
		</g>
	</g>
</g>
<g id="g3472" transform="translate(288,27.3594)">
	<path id="path3474" class="st2" d="M393.3,664.4c361.6,0,654.7-148.5,654.7-331.8c0-183.2-293.1-331.8-654.7-331.8
		s-654.7,148.5-654.7,331.8C-261.4,515.9,31.7,664.4,393.3,664.4"/>
</g>
<g id="g3478">
	<g id="g3484" transform="translate(161.7344,145.3066)">
		<path id="path3486" d="M208.4,255.8c29.7,0,51.9-5.5,66-16.3c13.9-10.7,23.5-29.2,28.5-55.1c4.7-24.2,2.9-41-5.3-50.1
			c-8.4-9.3-26.5-14-53.9-14h-47.5l-26.3,135.5H208.4z M53,422.8c-2.2,0-4.3-1-5.7-2.7c-1.4-1.7-2-3.9-1.6-6.1l69.8-359.1
			c0.7-3.5,3.7-6,7.3-6h150.4c47.3,0,82.5,12.8,104.6,38.2c22.2,25.5,29.1,61,20.4,105.8c-3.5,18.2-9.6,35.1-18.1,50.3
			c-8.5,15.2-19.7,29.2-33.3,41.7c-16.3,15.3-34.8,26.3-54.8,32.8c-19.7,6.4-45,9.7-75.3,9.7h-60.9l-17.4,89.5c-0.7,3.5-3.7,6-7.3,6
			H53z"/>
	</g>
	<g id="g3488" transform="translate(159.2236,197.3071)">
		<path id="path3490" class="st3" d="M204.7,75.7h41.4c33.1,0,44.6,7.3,48.5,11.6c6.5,7.2,7.7,22.3,3.5,43.8
			c-4.7,24-13.3,41.1-25.8,50.6c-12.7,9.8-33.4,14.8-61.5,14.8h-29.7L204.7,75.7z M275.8-10.5H125.3c-7.1,0-13.2,5-14.5,12L41,360.6
			c-0.8,4.3,0.3,8.8,3.1,12.2c2.8,3.4,7,5.4,11.4,5.4h78.2c7.1,0,13.2-5,14.5-12l16.2-83.5h54.8c31,0,57.1-3.4,77.6-10
			c21-6.8,40.4-18.4,57.5-34.5c14.2-13,25.8-27.7,34.7-43.5c8.8-15.8,15.2-33.5,18.9-52.5c9.2-47.1,1.7-84.8-22.1-112
			C362.3,3.1,325.3-10.5,275.8-10.5 M163.3,211.2h47.6c31.5,0,55-5.9,70.5-17.8c15.4-11.9,25.9-31.7,31.3-59.5
			c5.2-26.7,2.8-45.5-7.1-56.5c-9.9-11-29.7-16.5-59.4-16.5h-53.6L163.3,211.2 M275.8,4.2c45.3,0,78.3,11.9,99,35.6
			c20.8,23.8,27,56.9,18.7,99.5c-3.4,17.5-9.2,33.6-17.3,48.1c-8.1,14.5-18.7,27.8-31.8,39.9c-15.6,14.6-33,25-52.1,31.2
			c-19.1,6.2-43.4,9.3-73,9.3h-67l-18.6,95.5H55.5L125.3,4.2H275.8"/>
	</g>
	<g id="g3492" transform="translate(311.583,116.3066)">
		<path id="path3494" d="M427.8,356.3c-2.2,0-4.3-1-5.7-2.7c-1.4-1.7-2-3.9-1.6-6.1l30.9-158.9c2.9-15.1,2.2-26-2-30.5
			c-2.6-2.8-10.4-7.5-33.5-7.5h-55.9l-38.8,199.8c-0.7,3.5-3.7,6-7.3,6h-77.6c-2.2,0-4.3-1-5.7-2.7c-1.4-1.7-2-3.9-1.6-6.1
			l69.8-359.1c0.7-3.5,3.7-6,7.3-6h77.6c2.2,0,4.3,1,5.7,2.7c1.4,1.7,2,3.9,1.6,6.1L374,77.8h60.2c45.8,0,76.9,8.1,95,24.7
			c18.5,17,24.2,44.1,17.1,80.6l-32.5,167.1c-0.7,3.5-3.7,6-7.3,6H427.8z"/>
	</g>
	<g id="g3496" transform="translate(293.6611,271.0571)">
		<path id="path3498" class="st3" d="M401.6-179.8h-77.6c-7.1,0-13.2,5-14.5,12l-69.8,359.1c-0.8,4.3,0.3,8.8,3.1,12.2
			c2.8,3.4,7,5.4,11.4,5.4h77.6c7.1,0,13.2-5,14.5-12L383.9,3.2h49.8c23.1,0,27.9,4.9,28.1,5.1c1.4,1.5,3.2,8.5,0.2,24.1
			l-30.9,158.9c-0.8,4.3,0.3,8.8,3.1,12.2c2.8,3.4,7,5.4,11.4,5.4h78.9c7.1,0,13.2-5,14.5-12l32.5-167.1
			c7.6-39.2,1.1-68.7-19.4-87.5c-19.5-17.9-52.3-26.7-100-26.7h-51.2l15.1-77.9c0.8-4.3-0.3-8.8-3.1-12.2
			C410.2-177.8,406-179.8,401.6-179.8 M401.6-165L383-69.5h69.1c43.5,0,73.5,7.6,90,22.8C558.7-31.6,563.6-7,557,27l-32.5,167.1
			h-78.9l30.9-158.9c3.5-18.1,2.2-30.4-3.9-37c-6.1-6.6-19.1-9.9-38.9-9.9h-62l-40,205.8h-77.6L323.9-165H401.6"/>
	</g>
	<g id="g3500" transform="translate(409.5498,145.3066)">
		<path id="path3502" d="M571.2,255.8c29.7,0,51.9-5.5,66-16.3c13.9-10.7,23.5-29.2,28.5-55.1c4.7-24.2,2.9-41-5.3-50.1
			c-8.4-9.3-26.5-14-53.9-14h-47.5l-26.3,135.5H571.2z M415.8,422.8c-2.2,0-4.3-1-5.7-2.7c-1.4-1.7-2-3.9-1.6-6.1l69.8-359.1
			c0.7-3.5,3.7-6,7.3-6h150.4c47.3,0,82.5,12.8,104.6,38.2c22.2,25.5,29.1,61,20.4,105.8c-3.5,18.2-9.6,35.1-18.1,50.3
			c-8.5,15.2-19.7,29.2-33.3,41.7c-16.3,15.3-34.8,26.3-54.8,32.8c-19.7,6.4-45,9.7-75.3,9.7h-60.9l-17.4,89.5c-0.7,3.5-3.7,6-7.3,6
			H415.8z"/>
	</g>
	<g id="g3504" transform="translate(407.0391,197.3071)">
		<path id="path3506" class="st3" d="M567.6,75.7H609c33.1,0,44.6,7.3,48.5,11.6c6.5,7.2,7.7,22.3,3.5,43.8
			c-4.7,24-13.3,41.1-25.8,50.6c-12.7,9.8-33.4,14.8-61.5,14.8h-29.7L567.6,75.7z M638.6-10.5H488.2c-7.1,0-13.2,5-14.5,12
			l-69.8,359.1c-0.8,4.3,0.3,8.8,3.1,12.2c2.8,3.4,7,5.4,11.4,5.4h78.2c7.1,0,13.2-5,14.5-12l16.2-83.5h54.8c31,0,57.1-3.4,77.6-10
			c21-6.8,40.4-18.4,57.6-34.5c14.2-13,25.8-27.7,34.7-43.5c8.8-15.8,15.2-33.5,18.9-52.5c9.2-47.1,1.7-84.8-22.1-112
			C725.2,3.1,688.1-10.5,638.6-10.5 M526.2,211.2h47.6c31.5,0,55-5.9,70.5-17.8c15.4-11.9,25.9-31.7,31.3-59.5
			c5.2-26.7,2.8-45.5-7.1-56.5c-9.9-11-29.7-16.5-59.4-16.5h-53.6L526.2,211.2 M638.6,4.2c45.3,0,78.3,11.9,99,35.6
			s27,56.9,18.7,99.5c-3.4,17.5-9.2,33.6-17.3,48.1c-8.1,14.5-18.7,27.8-31.8,39.9c-15.6,14.6-33,25-52.1,31.2
			c-19.1,6.2-43.4,9.3-73,9.3h-67l-18.6,95.5h-78.2L488.2,4.2H638.6"/>
	</g>
</g>
</svg>
