<?xml version="1.0" encoding="utf-8"?>
<!-- Generator: Adobe Illustrator 26.5.0, SVG Export Plug-In . SVG Version: 6.00 Build 0)  -->
<svg version="1.1" id="Layer_1" xmlns="http://www.w3.org/2000/svg" xmlns:xlink="http://www.w3.org/1999/xlink" x="0px" y="0px"
	 viewBox="0 0 903.5 720" style="enable-background:new 0 0 903.5 720;" xml:space="preserve">
<style type="text/css">
	.st0{fill:url(#SVGID_1_);}
	.st1{fill:url(#SVGID_00000157267340574226702850000011747319397675511964_);stroke:#FFFFFF;}
</style>
<linearGradient id="SVGID_1_" gradientUnits="userSpaceOnUse" x1="90.9756" y1="646.4203" x2="880.5067" y2="19.6904" gradientTransform="matrix(1 0 0 -1 0 720)">
	<stop  offset="0" style="stop-color:#9013FE"/>
	<stop  offset="1" style="stop-color:#6610F2"/>
</linearGradient>
<path class="st0" d="M99.7,94.1C98,45.1,136.1,0,187.7,0h528.3c51.6,0,89.7,45.1,88,94.1c-1.6,47,0.5,107.9,15.8,157.6
	c15.4,49.8,41.3,81.3,83.8,85.4v45.9c-42.5,4-68.4,35.5-83.8,85.4c-15.3,49.7-17.5,110.6-15.8,157.6c1.7,49-36.4,94.1-88,94.1H187.7
	c-51.6,0-89.7-45.1-88-94.1c1.6-47-0.5-107.9-15.8-157.6C68.5,418.5,42.5,387,0,382.9v-45.9c42.5-4,68.5-35.5,83.9-85.4
	C99.2,202,101.3,141.1,99.7,94.1z"/>
<linearGradient id="SVGID_00000064354626074927601210000005439598312347917722_" gradientUnits="userSpaceOnUse" x1="333.7889" y1="521.7907" x2="510.2701" y2="223.3225" gradientTransform="matrix(1 0 0 -1 0 720)">
	<stop  offset="0" style="stop-color:#FFFFFF"/>
	<stop  offset="1" style="stop-color:#F1E5FC"/>
</linearGradient>
<path style="fill:url(#SVGID_00000064354626074927601210000005439598312347917722_);stroke:#FFFFFF;" d="M471.4,551.4
	c83.5,0,133.8-40.9,133.8-108.3c0-51-35.9-87.8-89.2-93.7v-2.1c39.2-6.4,69.9-42.7,69.9-83.3c0-57.9-45.7-95.5-115.3-95.5H313.9
	v382.9H471.4z M374.8,217h81c44,0,69.1,19.6,69.1,55.2c0,38-29.1,59.2-81.8,59.2h-68.2C374.8,331.4,374.8,217,374.8,217z
	 M374.8,502.8V376.8h80.5c57.6,0,87.5,21.2,87.5,62.6c0,41.4-29.1,63.4-84,63.4H374.8z"/>
</svg>
