<?xml version="1.0" encoding="utf-8"?>
<!-- Generator: Adobe Illustrator 26.5.0, SVG Export Plug-In . SVG Version: 6.00 Build 0)  -->
<svg version="1.1" id="Layer_1" xmlns="http://www.w3.org/2000/svg" xmlns:xlink="http://www.w3.org/1999/xlink" x="0px" y="0px"
	 viewBox="0 0 1069.3 720" style="enable-background:new 0 0 1069.3 720;" xml:space="preserve">
<style type="text/css">
	.st0{fill-rule:evenodd;clip-rule:evenodd;fill:#5D87A1;}
	.st1{fill:#00758F;}
	.st2{fill:#F29111;}
	.st3{fill-rule:evenodd;clip-rule:evenodd;fill:#F29111;}
	.st4{fill-rule:evenodd;clip-rule:evenodd;fill:#00758F;}
</style>
<g>
	<path class="st0" d="M729.9,72.6c-5.1,0-8.8,0.6-12,1.3v0.6h0.6c2.5,4.4,6.3,8.2,9.5,12c2.5,4.4,4.4,9.5,6.9,13.9l0.6-0.6
		c4.4-3.2,6.3-7.6,6.3-14.5c-1.9-1.9-1.9-4.4-3.8-6.3C736.2,76.4,731.8,74.5,729.9,72.6"/>
	<path class="st1" d="M259.4,656.2h-41.1c-1.3-68.8-5.7-133.9-12-195.2l0,0l-62.5,195.2h-30.9L50.9,461.1h-0.6
		c-4.4,58.7-7.6,123.2-8.8,195.2H4.2c2.5-87.2,8.2-168.6,18.3-244.4H73l59.4,180h0.6l59.4-180h48.6
		C251.2,500.2,257.5,581.7,259.4,656.2"/>
	<path class="st1" d="M436.8,475.6c-16.4,90.3-38.5,156-65.7,197.1C349.7,704.2,326.3,720,301,720c-6.9,0-15.2-1.9-25.3-6.3v-22.1
		c5.1,0.6,10.7,1.3,17.1,1.3c12,0,21.5-3.2,28.4-10.1c8.8-8.2,13.3-17.1,13.3-26.5c0-6.9-3.2-20.8-10.1-41.7l-44.8-139.6H320
		l32.2,104.2c6.9,24,10.1,40.4,8.8,49.9c17.7-47.4,29.7-98.5,37.3-154.1h38.5V475.6z"/>
	<polygon class="st2" points="981.9,656.2 865.7,656.2 865.7,411.2 904.8,411.2 904.8,625.9 981.9,625.9 	"/>
	<path class="st3" d="M835.4,661.9l-44.8-22.1c3.8-3.2,7.6-6.9,11.4-10.7c18.9-22.7,28.4-55.6,28.4-99.8
		c0-80.8-31.6-121.3-95.4-121.3c-30.9,0-55.6,10.1-72.6,30.9c-18.9,22.7-28.4,55.6-28.4,99.2c0,42.9,8.2,74.5,25.3,94.7
		c15.2,18.3,38.5,27.2,70.1,27.2c11.4,0,22.1-1.3,32.2-4.4l58.7,34.1L835.4,661.9z M689.5,606.9c-10.1-15.8-15.2-41.7-15.2-77.1
		c0-61.9,18.9-92.2,56.2-92.2c19.6,0,34.1,7.6,42.9,22.1c10.1,15.8,15.2,41.1,15.2,76.4c0,61.9-18.9,93.5-56.2,93.5
		C712.8,629.1,698.9,621.5,689.5,606.9"/>
	<path class="st2" d="M616.2,588c0,20.8-7.6,37.9-22.7,51.2c-15.2,13.3-35.4,20.2-61.3,20.2c-24,0-47.4-7.6-69.5-22.7l10.7-20.8
		c19.6,9.5,36.6,14.5,52.4,14.5c14.5,0,26.5-3.2,34.7-9.5s13.3-15.8,13.3-27.2c0-14.5-10.1-27.2-28.4-37.3
		c-17.1-9.5-51.2-29.1-51.2-29.1c-18.3-13.3-27.8-27.8-27.8-51.8c0-19.6,6.9-36,20.8-48s31.6-18.3,53.7-18.3
		c22.7,0,43.6,6.3,61.9,18.3l-9.5,20.8c-15.8-6.9-31.6-10.1-47.4-10.1c-12.6,0-22.1,3.2-29.1,8.8c-6.9,6.3-10.7,13.9-10.7,23.4
		c0,14.5,10.1,27.2,29.7,37.9c17.7,9.5,52.4,29.7,52.4,29.7C606.7,550.1,616.2,564.6,616.2,588"/>
	<path class="st4" d="M1031.2,329.1c-23.4-0.6-41.7,1.9-57.5,8.2c-4.4,1.9-11.4,1.9-12,7.6c2.5,2.5,2.5,6.3,5.1,9.5
		c3.8,5.7,9.5,13.9,15.2,18.3c6.3,4.4,12.6,9.5,18.9,13.9c11.4,6.9,24.6,11.4,36,18.3c6.3,4.4,13.3,9.5,19.6,13.9
		c3.2,2.5,5.1,6.3,9.5,7.6v-0.6c-1.9-2.5-2.5-6.3-4.4-9.5c-3.2-3.2-5.7-5.7-8.8-8.8c-8.8-11.4-18.9-21.5-30.9-29.7
		c-9.5-6.3-30.3-15.2-34.1-26.5c0,0,0,0-0.6-0.6c6.3-0.6,13.9-3.2,20.2-5.1c10.1-2.5,18.9-1.9,29.7-4.4c5.1-1.3,9.5-2.5,14.5-4.4
		v-2.5c-5.1-5.1-9.5-12.6-14.5-17.7c-15.2-13.3-31.6-25.9-48.6-36.6c-9.5-5.7-20.8-9.5-30.9-14.5c-3.8-1.9-9.5-2.5-11.4-5.7
		c-5.1-6.3-8.2-15.2-12-22.7c-8.8-16.4-17.1-34.1-24-51.2c-5.1-11.4-8.8-22.7-15.2-33.5c-30.3-50.5-63.8-80.8-114.3-110.5
		c-10.7-6.3-24-8.8-37.9-12c-7.6,0-14.5-0.6-22.1-1.3c-5.1-1.9-9.5-7.6-13.9-10.1c-17.1-10.7-60-33.5-72.6-3.2
		c-8.2,18.9,12,37.9,18.3,48c5.1,6.9,11.4,14.5,15.2,22.1c1.9,5.1,2.5,10.1,5.1,15.8c4.4,13.3,8.8,27.8,15.2,39.8
		c3.2,6.3,6.9,12.6,10.7,18.3c2.5,3.2,6.3,4.4,7.6,10.1c-4.4,5.7-4.4,14.5-6.9,22.1c-10.7,33.5-6.3,74.5,8.8,99.2
		c4.4,7.6,15.8,23.4,30.9,17.7c13.3-5.1,10.1-22.1,13.9-36.6c0.6-3.8,0-5.7,1.9-8.2v0.6c4.4,8.2,8.2,16.4,12,24.6
		c9.5,14.5,25.3,29.7,38.5,39.8c6.9,5.1,12.6,14.5,21.5,17.7v-0.6h-1.3c-1.9-2.5-4.4-3.8-6.9-5.7c-5.1-5.1-11.4-12-15.2-17.7
		c-12.6-16.4-23.4-34.7-32.8-53.7c-5.1-9.5-8.8-18.9-12.6-28.4c-1.9-3.8-1.9-8.8-4.4-10.7c-4.4,6.3-10.7,12-13.9,20.2
		c-5.7,12.6-6.3,28.4-8.2,44.8c-1.3,0-0.6,0-1.3,0.6c-9.5-2.5-12.6-12-16.4-20.2c-8.8-20.8-10.1-54.9-2.5-78.9
		c1.9-6.3,10.7-25.9,7.6-31.6c-1.9-5.7-7.6-8.8-10.7-13.3c-3.8-5.7-8.2-12.6-10.7-18.9c-6.9-16.4-10.7-34.7-18.3-51.2
		c-3.8-7.6-9.5-15.8-14.5-22.7c-5.7-8.2-12-13.9-16.4-22.7c-1.3-3.2-3.8-8.8-1.3-12c0.6-2.5,1.9-3.2,4.4-3.8
		c3.8-3.2,14.5,0.6,18.3,2.5c10.7,4.4,20.2,8.8,29.1,14.5c4.4,3.2,8.8,8.8,13.9,10.1h6.3c9.5,1.9,20.2,0.6,29.1,3.2
		c15.8,5.1,29.7,12.6,42.3,20.2c38.5,24.6,70.7,59.4,92.2,101.1c3.8,6.9,5.1,13.3,8.2,20.2c6.3,14.5,13.9,29.1,20.2,43.6
		c6.3,13.9,12,27.8,20.8,39.8c4.4,6.3,22.1,9.5,30.3,12.6c5.7,2.5,15.2,5.1,20.2,8.2c10.1,6.3,20.2,13.3,29.7,20.2
		C1015.4,315.8,1030.5,323.4,1031.2,329.1"/>
	<path class="st2" d="M1059.6,655.6h6.3v-29.7h-9.5l-7.6,20.2l-8.2-20.2h-8.8v29.7h5.7v-22.7h0.6l8.8,22.7h4.4l8.2-22.7V655.6z
		 M1010.3,655.6h6.3v-24.6h8.2v-5.1h-24v5.1h8.8v24.6H1010.3z"/>
</g>
</svg>
