<?xml version="1.0" encoding="utf-8"?>
<!-- Generator: Adobe Illustrator 26.5.0, SVG Export Plug-In . SVG Version: 6.00 Build 0)  -->
<svg version="1.1"
	 id="svg3476" xmlns:sodipodi="http://sodipodi.sourceforge.net/DTD/sodipodi-0.dtd" xmlns:svg="http://www.w3.org/2000/svg" xmlns:cc="http://creativecommons.org/ns#" xmlns:rdf="http://www.w3.org/1999/02/22-rdf-syntax-ns#" xmlns:inkscape="http://www.inkscape.org/namespaces/inkscape" xmlns:dc="http://purl.org/dc/elements/1.1/"
	 xmlns="http://www.w3.org/2000/svg" xmlns:xlink="http://www.w3.org/1999/xlink" x="0px" y="0px" viewBox="0 0 634.8 720"
	 style="enable-background:new 0 0 634.8 720;" xml:space="preserve">
<style type="text/css">
	.st0{fill:#264DE4;}
	.st1{fill:#2965F1;}
	.st2{fill:#EBEBEB;}
	.st3{fill:#FFFFFF;}
</style>
<sodipodi:namedview  bordercolor="#666666" borderopacity="1.0" fit-margin-bottom="0" fit-margin-left="0" fit-margin-right="0" fit-margin-top="0" id="base" inkscape:current-layer="layer1" inkscape:cx="181.367" inkscape:cy="256" inkscape:document-units="px" inkscape:pageopacity="0.0" inkscape:pageshadow="2" inkscape:window-height="704" inkscape:window-maximized="1" inkscape:window-width="1366" inkscape:window-x="0" inkscape:window-y="27" inkscape:zoom="0.35" pagecolor="#ffffff" showgrid="false">
	</sodipodi:namedview>
<g id="layer1" transform="translate(-193.633,-276.3622)" inkscape:groupmode="layer" inkscape:label="Calque 1">
	<g id="g3013" transform="translate(119,276.3622)">
		<polygon id="polygon2989" class="st0" points="709.5,0 651.7,648 391.6,720 132.3,648 74.6,0 		"/>
		<polygon id="polygon2991" class="st1" points="602.3,606.7 651.5,52.9 392,52.9 392,664.9 		"/>
		<polygon id="polygon2993" class="st2" points="207.1,293.4 214.1,372.8 392,372.8 392,293.4 		"/>
		<polygon id="polygon2995" class="st2" points="392,132.4 391.8,132.4 192.7,132.4 199.9,212 392,212 		"/>
		<polygon id="polygon2997" class="st2" points="392,582.4 392,499.7 391.8,499.9 303.2,475.8 297.5,412.6 254.6,412.6 217.9,412.6 
			228.8,537.3 391.8,582.6 		"/>
		<polygon id="polygon3005" class="st3" points="489.6,372.8 480.4,475.8 391.8,499.9 391.8,582.4 554.8,537.3 555.9,524 
			574.7,314.6 576.4,293.4 590.9,132.4 391.8,132.4 391.8,212 503.8,212 496.6,293.4 391.8,293.4 391.8,372.8 		"/>
	</g>
</g>
</svg>
